<!DOCTYPE svg PUBLIC "-//W3C//DTD SVG 20010904//EN" "http://www.w3.org/TR/2001/REC-SVG-20010904/DTD/svg10.dtd">
<svg version="1.0" xmlns="http://www.w3.org/2000/svg" width="215px" height="215px" viewBox="0 0 2150 2150" preserveAspectRatio="xMidYMid meet">
<g id="layer101" fill="#060604" stroke="none">
 <path d="M925 1849 c-137 -32 -297 -105 -436 -200 -103 -70 -159 -130 -200 -211 -81 -160 -78 -319 11 -580 l41 -121 -23 -51 c-20 -44 -23 -67 -23 -176 0 -108 3 -133 24 -184 l23 -58 41 6 c97 16 252 107 324 191 l38 45 100 -19 c55 -11 126 -23 158 -26 41 -5 60 -13 68 -26 11 -22 58 -26 77 -7 9 9 12 9 12 0 0 -7 7 -12 15 -12 8 0 15 9 15 20 0 17 7 20 45 20 24 0 67 5 95 11 l51 11 69 -66 c88 -86 208 -146 296 -149 l59 -2 24 70 c22 62 25 89 26 235 1 91 7 190 13 220 22 103 42 273 42 350 0 162 -48 259 -209 421 -155 155 -293 238 -464 279 -88 21 -239 25 -312 9z"/>
 </g>
<g id="layer102" fill="#433e44" stroke="none">
 <path d="M925 1849 c-137 -32 -297 -105 -436 -200 -103 -70 -159 -130 -200 -211 -81 -160 -78 -319 11 -580 l41 -121 -23 -51 c-20 -44 -23 -67 -23 -176 0 -108 3 -133 24 -184 l23 -58 41 6 c97 16 252 107 324 191 l38 45 100 -19 c55 -11 126 -23 158 -26 41 -5 60 -13 68 -26 11 -22 58 -26 77 -7 9 9 12 9 12 0 0 -7 7 -12 15 -12 8 0 15 9 15 20 0 17 7 20 45 20 24 0 67 5 95 11 l51 11 69 -66 c88 -86 208 -146 296 -149 l59 -2 24 70 c22 62 25 89 26 235 1 91 7 190 13 220 22 103 42 273 42 350 0 162 -48 259 -209 421 -155 155 -293 238 -464 279 -88 21 -239 25 -312 9z m140 -309 c11 -1 45 2 76 6 65 7 124 -16 153 -61 24 -37 13 -43 -13 -7 -20 29 -84 62 -119 62 -9 0 -34 -5 -54 -11 -35 -9 -38 -13 -38 -47 1 -34 5 -39 53 -67 62 -36 86 -72 72 -111 -18 -48 -58 -69 -135 -69 -76 0 -114 19 -139 70 -12 24 -11 30 6 54 11 14 43 40 71 56 50 29 52 32 50 69 -3 33 -7 41 -31 49 -46 15 -112 -1 -162 -39 -25 -18 -45 -30 -45 -24 0 11 57 56 90 69 14 6 52 8 85 6 33 -3 69 -5 80 -5z m-283 -431 c128 -27 199 -100 243 -252 11 -39 25 -63 42 -74 41 -27 72 -3 103 83 29 77 76 151 116 183 56 44 209 71 292 52 55 -14 115 -58 138 -103 8 -16 26 -77 39 -135 15 -67 32 -114 45 -128 11 -12 20 -35 20 -52 0 -39 -7 -40 -205 -49 -171 -7 -279 7 -387 50 -84 34 -192 36 -269 6 -112 -45 -371 -55 -549 -22 -44 8 -45 9 -42 43 1 20 11 40 23 49 13 11 28 48 44 115 35 142 59 183 124 217 60 31 130 37 223 17z"/>
 <path d="M607 1085 c-77 -27 -129 -101 -147 -207 -16 -89 -3 -129 53 -166 38 -26 48 -27 185 -30 173 -5 202 0 247 39 61 54 58 167 -8 265 -36 55 -74 80 -149 100 -66 17 -132 17 -181 -1z m132 -229 c24 -13 51 -52 51 -76 0 -5 -12 -22 -26 -39 -20 -24 -34 -31 -61 -31 -30 0 -34 2 -23 15 10 12 10 18 0 29 -16 20 -43 8 -36 -17 4 -18 3 -18 -20 4 -73 68 21 163 115 115z"/>
 <path d="M1444 1080 c-84 -12 -120 -29 -163 -75 -48 -52 -69 -99 -77 -169 -7 -71 16 -114 80 -146 46 -22 62 -24 195 -25 158 0 180 6 231 60 22 23 25 35 23 91 -3 86 -17 135 -56 186 -52 68 -126 93 -233 78z m-2 -257 c37 -33 41 -62 16 -99 -20 -30 -28 -34 -67 -34 -40 0 -43 1 -26 13 21 16 12 37 -17 37 -15 0 -19 -5 -15 -20 5 -18 4 -18 -19 -3 -44 29 -29 105 26 126 25 10 81 -1 102 -20z"/>
 <path d="M390 715 c0 -10 11 -15 35 -15 24 0 35 5 35 15 0 10 -11 15 -35 15 -24 0 -35 -5 -35 -15z"/>
 <path d="M1725 702 c-13 -14 -2 -22 30 -22 19 0 35 4 35 9 0 10 -57 21 -65 13z"/>
 </g>
<g id="layer103" fill="#5f5f2d" stroke="none">
 <path d="M925 1849 c-192 -44 -461 -190 -565 -307 -104 -115 -149 -297 -117 -467 3 -16 8 -46 12 -65 3 -19 24 -89 46 -154 40 -119 40 -119 23 -157 -23 -53 -27 -79 -27 -194 0 -106 4 -132 30 -197 16 -40 16 -40 57 -34 97 16 251 107 323 191 l39 46 46 -10 c53 -12 109 -21 158 -26 19 -2 43 -6 53 -10 9 -4 29 -5 43 -2 13 2 22 2 20 -1 -3 -2 -1 -13 5 -23 11 -22 58 -26 77 -7 9 9 12 9 12 0 0 -7 7 -12 15 -12 10 0 15 10 15 26 0 25 2 26 43 20 24 -4 67 -2 96 5 l52 11 69 -66 c89 -86 209 -146 296 -149 l59 -2 24 70 c22 62 25 89 26 235 1 91 7 190 13 220 22 103 42 273 42 350 0 162 -48 259 -209 421 -155 155 -293 238 -464 279 -88 21 -239 25 -312 9z m135 -309 c8 0 45 3 81 6 76 7 114 -7 148 -55 34 -48 24 -58 -14 -14 -46 54 -89 69 -155 53 -49 -12 -50 -13 -50 -51 0 -27 4 -39 14 -39 8 0 37 -18 65 -40 43 -34 51 -46 51 -73 0 -57 -60 -97 -147 -97 -91 0 -158 61 -134 123 10 27 92 87 118 87 8 0 13 13 13 38 0 32 -5 41 -25 50 -14 7 -38 12 -53 12 -38 0 -128 -44 -142 -69 -6 -12 -16 -19 -21 -15 -14 8 26 51 71 75 28 15 49 18 100 14 36 -2 72 -5 80 -5z m-304 -425 c95 -18 155 -46 187 -88 34 -44 73 -124 87 -177 16 -59 26 -70 66 -70 34 0 64 28 64 60 0 8 13 43 29 76 64 136 145 186 306 188 78 1 97 -2 140 -24 41 -21 55 -35 78 -81 15 -31 36 -98 47 -149 11 -56 27 -101 38 -114 26 -27 34 -91 12 -93 -8 -1 -94 -5 -190 -9 -194 -7 -290 5 -402 52 -74 31 -175 33 -247 4 -102 -40 -217 -52 -391 -40 -217 14 -220 15 -220 54 0 23 9 41 30 61 17 16 30 35 30 44 0 31 33 148 57 198 28 60 58 85 128 106 63 20 59 20 151 2z"/>
 <path d="M605 1086 c-51 -19 -109 -83 -129 -143 -9 -26 -16 -76 -16 -113 0 -62 2 -68 33 -97 47 -44 85 -53 230 -53 148 0 198 11 233 53 20 24 24 39 24 98 0 116 -63 212 -159 243 -71 24 -169 29 -216 12z m156 -245 c34 -35 37 -68 8 -105 -30 -39 -96 -37 -143 4 -31 28 -33 33 -25 67 10 48 32 63 87 63 35 0 49 -6 73 -29z"/>
 <path d="M640 745 c0 -8 2 -15 4 -15 2 0 11 -3 20 -6 12 -4 16 0 16 15 0 14 -6 21 -20 21 -11 0 -20 -7 -20 -15z"/>
 <path d="M1372 1061 c-99 -34 -161 -124 -164 -240 -2 -72 17 -105 75 -132 35 -15 66 -19 189 -19 157 0 187 6 231 48 25 24 27 32 27 101 -1 122 -44 206 -124 242 -54 25 -163 25 -234 0z m57 -225 c26 -14 51 -53 51 -80 0 -7 -9 -25 -21 -40 -17 -21 -29 -26 -67 -26 -31 0 -42 3 -33 9 17 11 7 45 -12 38 -6 -2 -11 -11 -11 -20 1 -13 -2 -14 -15 -7 -33 17 -40 34 -31 74 4 21 10 39 12 40 34 28 86 33 127 12z"/>
 <path d="M396 721 c-4 -5 8 -12 25 -16 33 -7 45 -3 34 14 -8 13 -52 14 -59 2z"/>
 <path d="M1720 690 c0 -5 16 -10 35 -10 19 0 35 5 35 10 0 6 -16 10 -35 10 -19 0 -35 -4 -35 -10z"/>
 </g>
<g id="layer104" fill="#64645f" stroke="none">
 <path d="M925 1849 c-137 -32 -297 -105 -436 -200 -142 -97 -211 -192 -242 -330 -14 -61 -16 -181 -4 -244 3 -16 8 -46 12 -65 3 -19 24 -89 46 -154 40 -119 40 -119 23 -157 -23 -53 -27 -79 -27 -194 0 -106 4 -132 30 -197 16 -40 16 -40 57 -34 97 16 251 107 323 191 l39 46 46 -10 c53 -12 109 -21 158 -26 19 -2 43 -6 53 -10 9 -4 29 -5 43 -2 13 2 22 2 20 -1 -3 -2 -1 -13 5 -23 11 -22 58 -26 77 -7 9 9 12 9 12 0 0 -7 7 -12 15 -12 10 0 15 10 15 26 0 25 2 26 43 20 24 -4 67 -2 96 5 l52 11 69 -66 c89 -86 209 -146 296 -149 l59 -2 24 70 c22 62 25 89 26 235 1 91 7 190 13 220 22 103 42 273 42 350 0 162 -48 259 -209 421 -155 155 -293 238 -464 279 -88 21 -239 25 -312 9z m135 -309 c8 0 45 3 81 6 76 7 114 -7 148 -55 34 -48 24 -58 -14 -14 -46 54 -89 69 -155 53 -49 -12 -50 -13 -50 -51 0 -27 4 -39 14 -39 8 0 37 -18 65 -40 43 -34 51 -46 51 -73 0 -57 -60 -97 -147 -97 -91 0 -158 61 -134 123 10 27 92 87 118 87 8 0 13 13 13 38 0 32 -5 41 -25 50 -14 7 -38 12 -53 12 -38 0 -128 -44 -142 -69 -6 -12 -16 -19 -21 -15 -14 8 26 51 71 75 28 15 49 18 100 14 36 -2 72 -5 80 -5z m-304 -421 c80 -15 157 -53 187 -92 34 -44 73 -124 87 -177 16 -59 26 -70 66 -70 34 0 64 28 64 60 0 30 68 158 103 192 44 44 110 68 207 75 126 9 205 -25 247 -108 13 -25 33 -90 44 -145 13 -64 26 -104 38 -114 10 -9 20 -34 23 -56 l6 -41 -57 -4 c-31 -2 -135 -4 -231 -3 -184 0 -260 12 -338 55 -51 27 -170 26 -231 -2 -25 -11 -90 -27 -145 -36 -87 -14 -122 -14 -256 -4 -209 16 -210 16 -210 54 0 19 9 41 24 56 16 18 31 55 45 113 22 95 57 172 90 202 24 22 114 55 152 56 14 0 52 -5 85 -11z"/>
 <path d="M631 1089 c-96 -19 -160 -112 -169 -244 -5 -74 -4 -75 29 -108 43 -43 103 -57 247 -57 126 0 169 10 211 49 29 27 31 34 31 100 0 83 -22 140 -75 193 -54 53 -183 85 -274 67z m130 -248 c34 -35 37 -68 8 -105 -16 -21 -29 -26 -62 -26 -47 0 -99 27 -117 61 -8 15 -9 19 -1 15 7 -5 11 2 11 18 0 41 33 66 86 66 37 0 51 -5 75 -29z m81 -58 c-6 -10 -23 -29 -38 -43 -25 -22 -25 -21 4 13 18 21 32 43 32 49 0 6 3 9 6 6 3 -4 1 -15 -4 -25z"/>
 <path d="M640 745 c0 -8 2 -15 4 -15 2 0 11 -3 20 -6 12 -4 16 0 16 15 0 14 -6 21 -20 21 -11 0 -20 -7 -20 -15z"/>
 <path d="M1386 1065 c-100 -28 -167 -116 -174 -230 -8 -130 35 -159 250 -163 129 -3 152 -1 192 16 66 30 79 56 74 150 -7 116 -66 209 -146 232 -50 13 -136 11 -196 -5z m43 -230 c16 -8 34 -28 41 -46 12 -27 11 -36 -4 -64 -10 -19 -29 -36 -43 -39 -34 -9 -96 10 -121 36 -18 20 -20 29 -12 61 4 21 10 40 12 41 34 28 86 33 127 11z"/>
 <path d="M1335 731 c-8 -15 3 -31 21 -31 9 0 14 7 12 17 -4 20 -24 28 -33 14z"/>
 <path d="M396 721 c-4 -5 8 -12 25 -16 33 -7 45 -3 34 14 -8 13 -52 14 -59 2z"/>
 <path d="M1720 690 c0 -5 16 -10 35 -10 19 0 35 5 35 10 0 6 -16 10 -35 10 -19 0 -35 -4 -35 -10z"/>
 </g>
<g id="layer105" fill="#9a9a3a" stroke="none">
 <path d="M890 1839 c-41 -11 -77 -24 -78 -29 -2 -6 -8 -8 -13 -5 -11 8 -109 -35 -109 -47 0 -5 -4 -7 -9 -4 -21 14 -297 -167 -285 -186 4 -6 3 -8 -3 -5 -12 8 -46 -27 -36 -36 3 -4 0 -7 -8 -7 -17 0 -62 -73 -52 -84 3 -3 1 -6 -6 -6 -7 0 -9 -4 -6 -10 3 -5 1 -10 -5 -10 -6 0 -8 -5 -5 -11 4 -5 -1 -19 -10 -29 -10 -11 -15 -26 -12 -34 4 -9 2 -18 -4 -21 -5 -4 -7 -11 -3 -16 3 -5 2 -15 -3 -22 -11 -14 -10 -154 1 -179 4 -9 5 -21 2 -27 -4 -5 -2 -12 3 -16 5 -3 10 -13 9 -23 0 -9 3 -28 7 -42 4 -14 8 -33 8 -42 1 -9 5 -14 10 -11 5 3 6 -4 2 -16 -4 -12 -2 -21 4 -21 6 0 8 -6 5 -14 -3 -8 0 -17 5 -21 6 -3 9 -11 6 -16 -4 -5 -1 -9 5 -9 7 0 10 -7 6 -15 -3 -8 -1 -15 4 -15 6 0 9 -3 9 -7 -1 -5 0 -10 1 -13 7 -14 6 -90 -1 -90 -5 0 -5 -7 -2 -17 4 -11 3 -14 -5 -9 -8 5 -10 2 -6 -8 3 -9 2 -16 -3 -16 -5 0 -10 -50 -12 -112 -1 -61 -5 -116 -8 -121 -4 -6 -1 -7 7 -2 10 6 12 1 8 -19 -3 -14 -1 -29 4 -32 4 -3 6 -10 3 -15 -4 -5 -1 -9 5 -9 7 0 10 -7 6 -15 -3 -8 -1 -15 4 -15 6 0 9 -3 9 -7 -5 -31 2 -35 43 -29 99 16 253 107 325 191 l39 46 52 -12 c29 -6 60 -8 68 -5 8 3 12 1 9 -4 -4 -6 6 -8 24 -6 17 2 31 -1 31 -6 0 -6 14 -8 35 -4 22 4 35 3 35 -4 0 -5 14 -10 31 -10 20 0 28 4 23 12 -5 7 -3 8 5 4 7 -5 10 -10 7 -13 -3 -3 -1 -14 5 -24 11 -22 58 -26 77 -7 9 9 12 9 12 0 0 -7 7 -12 15 -12 9 0 15 10 15 26 0 25 1 25 55 19 40 -5 55 -4 55 5 0 7 8 9 21 5 12 -4 24 -2 28 4 5 7 15 6 33 -3 15 -8 30 -11 34 -8 4 4 4 2 1 -4 -12 -21 99 -113 187 -155 66 -32 97 -41 143 -42 l58 -2 24 70 c22 62 25 89 26 235 1 91 7 190 13 220 22 103 42 273 42 350 0 162 -48 259 -209 421 -155 155 -294 239 -464 279 -109 25 -248 25 -347 -1z m136 -294 c23 -9 42 -12 52 -6 65 34 160 15 207 -41 44 -52 28 -64 -18 -14 -41 44 -46 46 -98 46 -88 0 -99 -6 -99 -51 0 -23 5 -39 12 -39 6 0 33 -14 59 -31 79 -51 83 -107 9 -157 -30 -20 -44 -23 -102 -20 -78 4 -118 27 -132 77 -12 42 14 77 82 111 47 23 51 28 51 61 1 43 -9 49 -82 49 -55 0 -108 -24 -139 -63 -9 -12 -20 -18 -24 -14 -14 14 60 77 106 92 59 18 74 18 116 0z m-248 -430 c37 -9 85 -26 107 -38 53 -30 108 -112 140 -207 25 -75 37 -90 73 -90 30 0 42 16 67 86 31 84 86 167 129 194 70 43 215 63 297 40 96 -27 138 -88 170 -246 13 -64 26 -104 38 -114 10 -9 20 -34 23 -56 l6 -41 -57 -4 c-31 -2 -132 -4 -226 -4 -181 0 -234 8 -340 52 -51 22 -71 25 -135 21 -42 -3 -89 -12 -107 -21 -17 -9 -77 -24 -134 -34 -91 -15 -121 -15 -258 -4 -213 16 -211 16 -211 58 0 23 8 41 25 56 17 16 30 46 44 109 22 95 56 172 90 202 26 24 116 55 159 56 18 0 63 -7 100 -15z"/>
 <path d="M631 1089 c-96 -19 -160 -112 -169 -244 -5 -74 -4 -75 30 -109 45 -45 114 -59 272 -54 133 3 180 20 204 73 34 75 -1 210 -71 271 -58 52 -179 81 -266 63z m156 -120 c32 -20 63 -65 63 -91 0 -7 -9 5 -19 27 -22 48 -50 67 -111 76 l-45 6 39 2 c24 0 52 -7 73 -20z m-197 -64 c-11 -22 -20 -33 -20 -26 0 14 32 72 37 68 1 -2 -6 -21 -17 -42z m171 -64 c33 -34 36 -60 12 -102 -15 -25 -23 -29 -63 -29 -27 0 -58 8 -77 20 -33 20 -62 60 -43 60 5 0 10 11 10 24 0 34 35 56 88 56 35 0 49 -6 73 -29z m89 -36 c0 -8 -16 -32 -36 -53 l-37 -37 32 38 c17 21 31 44 31 52 0 8 2 15 5 15 3 0 5 -7 5 -15z"/>
 <path d="M640 746 c0 -15 24 -28 34 -19 13 14 5 33 -14 33 -11 0 -20 -6 -20 -14z"/>
 <path d="M1386 1065 c-100 -28 -167 -116 -174 -230 -8 -130 35 -159 250 -163 129 -3 152 -1 192 16 66 30 79 56 74 150 -7 116 -66 209 -146 232 -50 13 -136 11 -196 -5z m63 -104 c8 -5 -5 -7 -35 -4 -27 3 -51 7 -53 9 -9 8 75 3 88 -5z m80 -74 c-2 -2 -17 12 -33 32 l-30 36 34 -32 c19 -18 32 -34 29 -36z m-80 -66 c17 -16 31 -39 31 -51 0 -33 -30 -78 -57 -85 -38 -9 -99 13 -127 46 l-26 30 20 39 c22 44 30 48 86 49 33 1 49 -5 73 -28z m72 -69 c-5 -9 -19 -26 -32 -37 -17 -15 -15 -10 7 17 32 41 40 48 25 20z"/>
 <path d="M1335 729 c-4 -6 -1 -15 6 -20 21 -13 31 -11 27 8 -4 20 -24 28 -33 12z"/>
 <path d="M408 713 c12 -2 30 -2 40 0 9 3 -1 5 -23 4 -22 0 -30 -2 -17 -4z"/>
 <path d="M1725 690 c3 -5 19 -10 36 -10 16 0 29 5 29 10 0 6 -16 10 -36 10 -21 0 -33 -4 -29 -10z"/>
 </g>
<g id="layer106" fill="#827984" stroke="none">
 <path d="M890 1839 c-41 -11 -77 -24 -78 -29 -2 -6 -8 -8 -13 -5 -11 8 -109 -35 -109 -47 0 -5 -4 -7 -9 -4 -20 13 -297 -166 -286 -185 4 -5 1 -8 -7 -7 -7 2 -12 -3 -10 -10 1 -6 -4 -11 -10 -10 -7 2 -12 -3 -10 -9 1 -7 -4 -13 -11 -13 -15 0 -60 -74 -50 -84 3 -3 1 -6 -6 -6 -7 0 -9 -4 -6 -10 3 -5 1 -10 -5 -10 -6 0 -8 -5 -5 -11 4 -5 -1 -19 -10 -29 -10 -11 -15 -26 -12 -34 4 -9 2 -18 -4 -21 -5 -4 -7 -11 -3 -16 3 -5 1 -16 -5 -23 -9 -11 -9 -53 0 -91 1 -6 -1 -22 -5 -38 -5 -17 -4 -33 4 -42 7 -8 10 -21 7 -30 -4 -8 -2 -17 3 -20 5 -3 9 -13 8 -23 0 -9 3 -28 7 -42 4 -14 8 -33 8 -42 1 -9 5 -14 10 -11 5 3 6 -4 2 -16 -4 -12 -2 -21 4 -21 6 0 8 -6 5 -14 -3 -8 0 -17 5 -21 6 -3 9 -11 6 -16 -4 -5 -1 -9 5 -9 7 0 10 -7 6 -15 -3 -8 -1 -15 4 -15 6 0 9 -3 9 -7 -1 -5 0 -10 1 -13 7 -14 6 -90 -1 -90 -5 0 -5 -7 -2 -17 4 -11 3 -14 -5 -9 -8 5 -10 2 -6 -8 3 -9 2 -16 -3 -16 -5 0 -10 -50 -12 -112 -1 -61 -5 -116 -8 -121 -4 -6 -1 -7 7 -2 10 6 12 1 8 -19 -3 -14 -1 -29 4 -32 4 -3 6 -10 3 -15 -4 -5 -1 -9 5 -9 7 0 10 -7 6 -15 -3 -8 -1 -15 4 -15 6 0 9 -3 9 -7 -5 -31 2 -35 43 -29 99 16 253 107 325 191 l39 46 52 -12 c29 -6 60 -8 68 -5 8 3 12 1 9 -4 -4 -6 6 -8 24 -6 17 2 31 -1 31 -5 0 -5 10 -9 23 -9 18 0 19 2 7 11 -11 8 -9 9 10 3 14 -4 27 -11 28 -15 2 -5 17 -9 33 -9 20 0 28 4 23 12 -5 7 -3 8 5 4 7 -5 10 -10 7 -13 -3 -3 -1 -14 5 -24 11 -22 58 -26 77 -7 9 9 12 9 12 0 0 -7 7 -12 15 -12 9 0 15 9 15 24 0 27 20 39 41 25 20 -12 69 -11 69 2 0 6 9 8 21 4 12 -4 24 -2 28 4 5 7 15 6 33 -3 15 -8 30 -11 34 -8 4 4 4 2 1 -4 -6 -10 27 -49 42 -49 3 0 5 -3 4 -7 -4 -12 59 -59 128 -94 83 -41 163 -61 183 -44 11 8 15 8 18 -2 7 -21 25 20 49 113 18 71 21 101 16 194 -3 73 0 138 9 191 81 471 61 568 -165 795 -155 155 -294 239 -464 279 -109 25 -248 25 -347 -1z m136 -294 c23 -9 42 -12 52 -6 65 34 160 15 207 -41 44 -52 28 -64 -18 -14 -41 44 -46 46 -98 46 -88 0 -99 -6 -99 -51 0 -23 5 -39 12 -39 6 0 33 -14 59 -31 79 -51 83 -107 9 -157 -30 -20 -44 -23 -102 -20 -78 4 -118 27 -132 77 -12 42 14 77 82 111 47 23 51 28 51 61 1 43 -9 49 -82 49 -55 0 -108 -24 -139 -63 -9 -12 -20 -18 -24 -14 -14 14 60 77 106 92 59 18 74 18 116 0z m871 -427 c-2 -13 -4 -3 -4 22 0 25 2 35 4 23 2 -13 2 -33 0 -45z m-1133 1 c133 -23 210 -97 261 -250 22 -64 31 -80 50 -85 35 -9 62 3 73 34 81 219 130 267 299 290 127 18 229 -22 272 -106 18 -36 42 -125 56 -205 3 -21 14 -46 25 -57 23 -23 38 -100 18 -101 -7 0 -87 -4 -178 -8 -195 -10 -302 3 -420 51 -67 26 -83 29 -150 25 -45 -3 -93 -13 -120 -25 -94 -43 -341 -53 -527 -21 l-63 11 0 35 c0 25 7 43 24 58 16 15 29 46 41 101 34 152 82 223 172 251 49 15 92 16 167 2z"/>
 <path d="M585 1071 c-72 -32 -125 -140 -125 -252 0 -95 57 -129 230 -137 223 -9 290 27 290 155 0 112 -69 207 -172 238 -71 21 -173 19 -223 -4z m188 -92 c91 -47 112 -149 46 -224 -58 -66 -160 -67 -214 -3 -16 19 -23 34 -16 36 6 2 11 14 11 27 0 33 36 55 88 55 78 0 126 -72 86 -129 -16 -22 -16 -23 4 -12 59 31 83 103 57 169 -21 52 -67 82 -125 82 -55 0 -95 -25 -120 -75 -11 -22 -20 -34 -20 -27 0 26 30 70 62 91 37 23 106 28 141 10z"/>
 <path d="M640 746 c0 -15 24 -28 34 -19 13 14 5 33 -14 33 -11 0 -20 -6 -20 -14z"/>
 <path d="M1391 1064 c-30 -8 -69 -25 -86 -38 -79 -60 -123 -229 -75 -289 41 -52 72 -61 231 -65 130 -4 151 -2 192 16 64 28 81 65 73 154 -18 191 -142 274 -335 222z m82 -113 c85 -56 96 -165 22 -230 -41 -36 -91 -47 -139 -31 -35 11 -96 70 -96 93 0 9 3 8 9 -1 6 -10 12 -5 21 18 16 38 37 50 88 50 30 0 47 -7 71 -29 35 -32 39 -65 15 -100 -16 -22 -16 -23 4 -12 11 6 29 23 40 38 62 90 12 196 -100 213 l-53 8 45 1 c29 0 55 -6 73 -18z m-147 -11 c-34 -22 -65 -74 -66 -109 0 -13 -3 -22 -6 -18 -4 3 -3 22 0 42 7 36 65 105 89 105 7 0 -1 -9 -17 -20z"/>
 <path d="M1335 729 c-4 -6 -1 -15 6 -20 21 -13 31 -11 27 8 -4 20 -24 28 -33 12z"/>
 <path d="M408 713 c12 -2 30 -2 40 0 9 3 -1 5 -23 4 -22 0 -30 -2 -17 -4z"/>
 <path d="M1725 690 c3 -5 19 -10 36 -10 16 0 29 5 29 10 0 6 -16 10 -36 10 -21 0 -33 -4 -29 -10z"/>
 </g>
<g id="layer107" fill="#a09d9f" stroke="none">
 <path d="M983 1853 c15 -2 39 -2 55 0 15 2 2 4 -28 4 -30 0 -43 -2 -27 -4z"/>
 <path d="M1076 1853 c-10 -10 -136 -20 -130 -11 3 5 -5 8 -18 8 -19 0 -20 -2 -8 -11 11 -8 6 -9 -20 -5 -27 5 -31 3 -20 -5 12 -8 9 -10 -12 -6 -17 2 -25 0 -21 -6 4 -6 -2 -8 -15 -5 -14 4 -20 2 -15 -5 4 -6 -2 -8 -15 -5 -12 4 -20 2 -17 -2 7 -12 -32 -23 -46 -14 -8 5 -9 3 -4 -6 6 -10 4 -12 -9 -7 -9 4 -15 3 -12 -2 8 -12 -20 -22 -39 -15 -9 4 -18 -1 -21 -10 -4 -9 -20 -24 -36 -32 -17 -9 -27 -11 -24 -5 14 22 -6 10 -36 -21 -18 -18 -25 -24 -17 -14 8 11 -10 4 -43 -19 -32 -21 -58 -40 -58 -42 0 -2 5 -1 12 3 7 4 8 3 4 -5 -4 -6 -12 -9 -17 -6 -5 3 -28 -13 -51 -36 -24 -23 -34 -36 -23 -28 20 13 20 13 1 -8 -10 -13 -23 -20 -27 -17 -5 3 -6 -1 -3 -9 3 -8 0 -18 -7 -23 -8 -5 -10 -3 -4 6 5 8 4 11 -3 6 -6 -4 -8 -14 -5 -23 4 -11 3 -14 -5 -9 -8 5 -10 1 -5 -10 4 -12 3 -15 -5 -10 -8 5 -10 1 -5 -10 4 -12 3 -15 -5 -10 -8 5 -10 1 -5 -10 4 -12 3 -15 -5 -10 -8 5 -10 1 -5 -10 4 -11 3 -15 -4 -11 -7 5 -9 -1 -5 -15 3 -12 1 -19 -5 -15 -5 4 -8 -6 -5 -25 3 -17 1 -28 -4 -25 -9 5 -16 -69 -12 -128 0 -5 -2 -23 -6 -40 -5 -24 -4 -26 4 -10 8 16 9 12 7 -22 -1 -23 0 -40 2 -37 8 8 31 -118 24 -129 -4 -6 -1 -7 7 -2 10 6 12 3 8 -13 -4 -14 -2 -20 5 -15 6 4 8 -2 5 -15 -4 -14 -2 -20 5 -15 6 4 8 -2 5 -15 -4 -14 -2 -20 5 -15 6 4 8 -2 5 -15 -4 -12 -2 -20 3 -16 8 5 13 -12 12 -43 -1 -7 4 -10 9 -7 6 4 7 -2 3 -17 -5 -13 -9 -33 -10 -44 -4 -35 -5 -36 -14 -31 -5 4 -7 -4 -3 -16 4 -16 2 -19 -8 -13 -7 5 -11 4 -8 -1 3 -5 2 -59 -1 -121 -3 -64 -2 -109 3 -106 5 3 7 -6 4 -20 -3 -15 -1 -24 3 -21 8 5 13 -19 12 -53 -1 -7 4 -10 10 -6 6 4 8 0 4 -11 -5 -11 -3 -15 5 -10 7 5 9 2 6 -7 -4 -10 2 -15 19 -17 16 -1 22 2 17 10 -5 8 -2 9 11 4 22 -8 87 12 80 25 -4 5 2 6 11 2 13 -5 15 -3 9 7 -5 8 -4 11 3 6 16 -10 64 12 56 26 -4 7 -3 8 4 4 15 -9 64 23 55 37 -3 5 -1 7 4 4 14 -9 65 32 57 45 -4 6 -2 8 3 5 13 -8 45 26 41 44 -2 7 3 14 10 15 6 1 18 2 25 3 8 1 8 4 -3 12 -12 9 -12 10 3 5 10 -3 21 -6 23 -6 3 0 2 -4 -1 -10 -3 -6 4 -10 17 -10 19 0 20 2 8 11 -12 9 -12 10 3 5 10 -3 24 -6 30 -6 7 0 6 -5 -3 -11 -12 -9 -11 -10 7 -6 13 3 26 1 29 -4 3 -5 11 -9 17 -9 7 0 6 4 -3 10 -9 6 -10 10 -3 10 6 0 14 -4 18 -9 3 -5 22 -7 43 -5 23 4 32 2 24 -3 -7 -6 11 -8 48 -5 33 2 60 0 60 -5 0 -5 -17 -8 -37 -6 -36 2 -30 -1 24 -13 13 -2 22 -8 22 -12 -3 -19 2 -25 11 -12 6 10 10 11 10 3 0 -16 32 -17 48 -1 9 9 12 9 12 0 0 -7 7 -12 15 -12 9 0 15 9 15 24 0 27 20 39 41 25 8 -5 28 -8 44 -8 l30 1 -30 7 c-29 7 -29 7 12 12 23 2 39 1 37 -3 -3 -5 2 -8 11 -8 9 0 13 5 10 10 -8 14 29 7 47 -8 8 -6 19 -8 23 -4 5 4 5 2 2 -4 -7 -12 26 -48 35 -39 3 3 13 -5 24 -17 19 -22 19 -23 -1 -8 -15 10 -13 7 5 -13 13 -15 30 -25 37 -23 7 3 15 0 19 -6 4 -7 3 -8 -4 -4 -7 4 -12 5 -12 2 0 -3 10 -10 21 -17 16 -8 20 -8 14 1 -4 6 11 2 34 -9 23 -12 41 -26 41 -31 0 -5 7 -6 17 -3 12 5 14 3 8 -7 -6 -10 -4 -12 9 -7 10 4 36 4 59 0 33 -5 37 -8 22 -14 -19 -7 -19 -8 -1 -8 11 -1 28 7 38 16 18 16 18 16 12 -2 -5 -12 -4 -16 4 -11 39 24 74 269 54 388 -5 32 -6 55 -2 53 4 -3 10 14 13 38 3 23 15 103 26 177 25 161 26 275 6 354 -17 64 -61 147 -77 143 -5 -1 -17 9 -25 23 l-15 25 21 -25 c33 -40 24 -13 -10 30 -18 22 -37 37 -43 33 -6 -3 -8 -2 -3 2 10 11 -73 96 -86 88 -6 -3 -7 -1 -3 5 7 12 -42 54 -55 46 -5 -3 -8 0 -7 8 2 7 -3 12 -10 10 -6 -1 -11 3 -10 9 2 6 -3 14 -11 17 -9 3 -11 0 -6 -9 5 -8 4 -11 -1 -6 -5 5 -9 14 -9 19 0 6 -6 13 -14 16 -9 3 -11 0 -6 -9 5 -8 4 -11 -1 -6 -5 5 -9 14 -9 20 0 7 -8 11 -18 11 -9 -1 -14 3 -10 9 4 6 0 8 -10 4 -9 -3 -19 -1 -23 5 -4 7 -3 8 4 4 7 -4 12 -5 12 -2 0 11 -61 37 -72 30 -6 -4 -8 -3 -5 3 4 6 0 14 -9 17 -22 8 -26 8 -19 -4 3 -6 -1 -7 -9 -4 -9 3 -14 10 -11 14 8 12 -59 32 -80 24 -13 -5 -16 -4 -11 5 6 9 0 10 -20 5 -19 -5 -25 -3 -20 4 5 8 -12 10 -56 8 -49 -3 -54 -2 -23 4 l40 7 -46 1 c-25 1 -49 -1 -53 -5z m-48 -304 c23 -8 46 -7 88 1 48 10 63 9 100 -5 46 -18 109 -79 98 -97 -4 -6 -19 4 -38 25 -39 44 -64 57 -115 57 -66 0 -91 -14 -91 -52 1 -30 6 -35 51 -57 47 -22 89 -68 89 -98 0 -29 -61 -81 -109 -93 -112 -27 -222 53 -181 130 13 24 93 80 114 80 19 0 22 60 4 78 -15 15 -97 16 -135 1 -15 -5 -43 -24 -60 -41 -18 -18 -35 -29 -39 -26 -11 11 15 46 51 68 63 39 118 48 173 29z m817 -179 c9 -16 13 -30 11 -30 -3 0 -12 14 -21 30 -9 17 -13 30 -11 30 3 0 12 -13 21 -30z m52 -297 c-2 -21 -4 -4 -4 37 0 41 2 58 4 38 2 -21 2 -55 0 -75z m-1132 46 c140 -26 225 -109 265 -259 28 -107 97 -109 130 -5 51 161 132 232 287 253 128 18 230 -22 272 -106 18 -36 42 -125 56 -205 3 -21 14 -46 24 -56 10 -10 21 -31 24 -47 3 -16 9 -38 13 -48 5 -12 4 -17 -3 -13 -5 3 -88 2 -184 -2 -199 -10 -312 3 -414 45 -92 39 -183 42 -268 10 -105 -40 -237 -52 -415 -38 -192 16 -192 16 -192 60 0 24 7 42 24 57 16 15 29 46 41 101 49 221 142 290 340 253z m1118 -160 c-5 -5 -6 11 -3 34 4 41 5 41 8 8 2 -18 0 -37 -5 -42z m-48 -569 c-9 -41 -17 -33 -9 9 4 17 9 30 11 27 3 -2 2 -19 -2 -36z"/>
 <path d="M585 1071 c-72 -32 -125 -140 -125 -252 0 -95 57 -129 230 -137 180 -7 268 21 286 94 21 81 -20 202 -86 258 -65 54 -225 74 -305 37z m206 -104 c119 -79 64 -261 -80 -261 -56 0 -93 20 -121 67 -19 30 -29 67 -12 39 6 -9 12 -5 20 13 17 38 74 59 118 45 60 -20 95 -93 62 -129 -11 -11 -9 -12 8 -3 27 14 49 48 58 89 16 69 -53 153 -125 153 -75 0 -139 -54 -139 -116 0 -19 -5 -34 -11 -34 -13 0 -3 52 17 91 34 67 139 90 205 46z"/>
 <path d="M646 751 c-3 -5 1 -14 8 -20 16 -13 32 2 21 19 -8 12 -22 13 -29 1z"/>
 <path d="M1391 1064 c-30 -8 -69 -25 -86 -38 -79 -60 -123 -229 -75 -289 41 -52 72 -61 231 -65 130 -4 151 -2 192 16 64 28 81 65 73 154 -18 191 -142 274 -335 222z m82 -113 c85 -56 96 -165 22 -230 -41 -36 -91 -47 -139 -31 -39 13 -96 71 -95 98 0 14 2 14 9 -3 8 -18 9 -18 9 -2 1 10 12 29 26 42 37 37 106 35 146 -4 33 -33 37 -65 13 -100 l-17 -23 27 17 c81 53 73 185 -14 230 -79 41 -165 -2 -196 -97 l-14 -43 4 38 c12 100 138 162 219 108z"/>
 <path d="M1335 729 c-4 -6 -1 -15 6 -20 21 -13 31 -11 27 8 -4 20 -24 28 -33 12z"/>
 <path d="M413 713 c9 -2 25 -2 35 0 9 3 1 5 -18 5 -19 0 -27 -2 -17 -5z"/>
 <path d="M1725 690 c3 -5 19 -10 36 -10 16 0 29 5 29 10 0 6 -16 10 -36 10 -21 0 -33 -4 -29 -10z"/>
 </g>
<g id="layer108" fill="#b9b65e" stroke="none">
 <path d="M1010 1851 l55 -6 -76 -7 c-42 -3 -117 -20 -168 -37 -51 -17 -97 -28 -103 -25 -7 5 -8 2 -3 -6 6 -10 4 -12 -9 -7 -9 4 -15 3 -12 -2 7 -11 -43 -33 -56 -25 -7 5 -8 2 -3 -6 6 -10 4 -12 -9 -7 -10 4 -15 3 -11 -3 3 -5 -3 -14 -14 -19 -26 -14 -34 -14 -25 2 4 7 3 9 -2 4 -5 -5 -9 -14 -9 -19 0 -6 -6 -13 -14 -16 -9 -3 -11 0 -6 9 5 8 4 11 -1 6 -5 -5 -9 -14 -9 -19 0 -6 -6 -13 -14 -16 -9 -3 -11 0 -6 9 5 8 4 11 -1 6 -5 -5 -9 -14 -9 -19 0 -6 -6 -13 -14 -16 -9 -3 -11 0 -6 9 5 8 4 11 -1 6 -5 -5 -9 -14 -9 -19 0 -6 -6 -13 -14 -16 -8 -3 -11 0 -7 7 11 17 0 13 -15 -6 -12 -14 -12 -16 0 -8 10 6 12 4 7 -4 -5 -7 -14 -10 -21 -7 -13 5 -43 -21 -44 -39 -1 -5 -5 -10 -10 -10 -5 0 -13 -4 -18 -9 -5 -5 -3 -6 5 -2 6 4 12 4 12 1 0 -9 -32 -40 -41 -40 -4 0 -11 -4 -16 -9 -5 -5 -2 -6 6 -1 9 5 12 3 9 -6 -3 -8 -10 -13 -16 -12 -7 2 -9 -4 -5 -14 5 -12 3 -14 -7 -8 -9 6 -11 4 -5 -4 8 -13 -23 -93 -34 -87 -7 5 -8 -12 -13 -176 -2 -64 0 -114 3 -112 8 5 29 -117 22 -129 -3 -6 -1 -7 4 -4 13 8 66 -149 57 -165 -4 -7 -2 -8 4 -4 7 4 12 2 12 -3 0 -6 5 -11 10 -11 25 0 49 43 65 116 35 159 88 231 188 255 93 22 238 -10 305 -67 42 -35 93 -123 113 -194 15 -55 35 -80 64 -80 28 0 49 24 65 75 34 109 94 189 165 221 72 33 181 46 250 30 103 -25 149 -79 179 -216 29 -127 37 -151 52 -157 8 -3 14 -17 14 -31 0 -23 1 -24 13 -8 11 15 12 12 9 -23 -2 -23 -7 -39 -11 -36 -4 2 -86 0 -182 -4 -196 -10 -303 2 -415 44 -89 34 -198 36 -277 7 -97 -37 -233 -48 -412 -34 -85 7 -162 15 -170 18 -9 4 -15 19 -15 40 0 19 -4 34 -10 34 -9 0 -14 -14 -11 -32 0 -4 -6 -26 -15 -49 -24 -71 -28 -174 -9 -259 10 -41 18 -83 18 -92 1 -9 5 -14 9 -12 5 3 11 -2 14 -10 3 -9 13 -16 21 -16 8 0 11 5 7 11 -5 9 1 10 22 5 18 -4 24 -3 16 2 -17 11 72 47 89 36 7 -4 9 -3 6 3 -4 6 6 15 21 22 25 11 26 10 8 -4 -11 -8 -16 -15 -12 -15 10 0 96 60 96 67 0 3 -8 0 -17 -8 -10 -7 16 22 58 65 55 56 80 75 92 70 9 -3 14 -10 11 -15 -3 -5 2 -9 11 -9 10 0 13 5 9 12 -5 7 -2 9 9 5 8 -3 32 -9 52 -13 22 -4 32 -10 25 -14 -6 -4 12 -5 41 -2 29 3 50 1 46 -4 -3 -5 19 -7 49 -6 34 3 54 0 54 -7 0 -6 -8 -8 -17 -5 -15 5 -15 4 -3 -4 8 -6 18 -8 24 -5 5 4 7 -1 3 -10 -3 -9 -1 -19 6 -23 7 -4 9 -4 5 1 -4 4 0 14 10 21 10 8 12 13 5 14 -15 0 -18 20 -4 20 15 0 22 -32 10 -46 -9 -11 -7 -14 9 -14 24 0 48 25 32 35 -5 3 -10 -1 -10 -9 0 -9 -4 -16 -10 -16 -8 0 -5 20 7 42 2 4 13 -2 25 -14 16 -16 18 -22 7 -29 -11 -7 -10 -9 4 -9 10 0 17 8 17 20 0 11 -5 20 -11 20 -5 0 -8 4 -5 9 3 4 16 7 28 4 13 -2 41 -5 63 -8 33 -3 35 -3 10 4 -30 7 -29 7 12 12 23 2 40 2 38 -2 -2 -3 2 -6 10 -6 8 0 12 4 9 9 -3 4 1 8 10 8 8 0 20 2 28 4 7 3 24 -9 37 -27 l25 -32 -35 30 -34 30 29 -32 c16 -18 32 -30 36 -28 4 2 22 -12 41 -33 19 -20 25 -30 13 -22 -11 8 -7 3 9 -12 17 -15 36 -24 45 -21 10 4 13 2 8 -5 -5 -8 -1 -10 10 -5 12 4 15 3 10 -5 -4 -8 -2 -10 8 -6 8 3 23 -3 33 -13 11 -11 25 -17 33 -15 8 3 10 0 5 -8 -6 -10 -4 -12 9 -7 10 4 36 4 59 0 33 -5 37 -8 22 -14 -16 -6 -16 -8 -4 -8 53 -3 99 123 100 275 0 49 3 81 7 72 4 -10 7 19 8 64 0 46 -3 73 -7 62 -6 -15 -8 -15 -8 -3 -1 9 5 22 13 28 17 15 42 166 29 184 -5 6 -6 30 -2 52 l6 40 3 -40 3 -40 8 45 c13 75 10 212 -6 275 -20 75 -68 153 -147 240 -71 78 -189 181 -239 209 -43 24 -32 13 61 -56 41 -31 93 -76 115 -100 36 -39 35 -38 -15 8 -202 184 -387 262 -660 279 l-55 3 55 -7z m17 -302 c20 -8 43 -7 83 1 77 16 127 2 174 -51 20 -22 34 -45 30 -51 -4 -6 -19 3 -38 25 -39 44 -64 57 -115 57 -63 0 -91 -15 -91 -48 0 -25 9 -34 57 -63 33 -19 64 -46 71 -62 38 -80 -76 -157 -188 -127 -54 14 -100 59 -100 96 0 31 56 89 107 111 27 11 33 19 33 43 0 35 -23 50 -79 50 -52 0 -81 -12 -125 -51 -20 -17 -39 -29 -42 -26 -11 10 16 45 51 67 63 39 121 49 172 29z m797 -144 c42 -62 61 -110 70 -175 4 -33 1 -27 -13 25 -18 64 -46 124 -88 183 -8 12 -13 22 -10 22 3 0 21 -25 41 -55z m73 -332 c-2 -21 -4 -4 -4 37 0 41 2 58 4 38 2 -21 2 -55 0 -75z m-27 -200 c-11 -17 -11 -17 -6 0 3 10 7 28 7 40 2 22 2 22 6 0 2 -12 -1 -30 -7 -40z m-9 -69 c-5 -21 -9 -30 -10 -19 -1 24 10 67 15 62 3 -2 0 -22 -5 -43z m-1251 -254 c13 -9 13 -10 0 -9 -8 1 -26 5 -40 9 l-25 8 25 1 c14 0 32 -4 40 -9z m979 -17 c-7 -10 -14 -19 -15 -21 -1 -1 -7 4 -14 13 -11 13 -10 14 4 9 9 -3 16 -1 16 5 0 6 5 11 11 11 8 0 7 -6 -2 -17z m-70 -49 c12 -19 16 -32 11 -29 -11 7 -43 65 -36 65 2 0 13 -16 25 -36z m-929 -17 c0 -2 -15 -16 -32 -33 l-33 -29 29 33 c28 30 36 37 36 29z"/>
 <path d="M1108 1853 c12 -2 32 -2 45 0 12 2 2 4 -23 4 -25 0 -35 -2 -22 -4z"/>
 <path d="M1410 1776 c0 -3 14 -12 30 -21 17 -9 30 -13 30 -11 0 3 -13 12 -30 21 -16 9 -30 13 -30 11z"/>
 <path d="M585 1071 c-72 -32 -125 -140 -125 -252 0 -95 57 -129 230 -137 217 -9 290 28 290 147 0 112 -72 216 -169 245 -74 22 -175 20 -226 -3z m206 -104 c90 -60 88 -172 -4 -241 -35 -26 -114 -27 -151 -2 -27 17 -67 73 -65 91 0 6 3 4 6 -3 3 -9 12 -3 24 17 35 58 108 65 161 14 30 -29 38 -79 16 -102 -11 -11 -9 -11 9 -2 32 16 53 62 53 116 0 64 -46 115 -111 122 -78 9 -149 -45 -149 -113 0 -19 -5 -34 -11 -34 -13 0 -3 52 17 91 34 67 139 90 205 46z"/>
 <path d="M645 750 c-3 -6 1 -13 10 -16 19 -8 30 0 20 15 -8 14 -22 14 -30 1z"/>
 <path d="M1391 1064 c-30 -8 -69 -25 -86 -38 -79 -60 -123 -229 -75 -289 41 -52 72 -61 231 -65 130 -4 151 -2 192 16 64 28 81 65 73 154 -18 191 -142 274 -335 222z m83 -113 c124 -77 71 -266 -74 -266 -150 0 -201 203 -68 268 45 22 104 21 142 -2z"/>
 <path d="M1333 940 c-53 -32 -68 -66 -64 -145 l2 -30 14 32 c15 34 36 50 75 53 48 4 62 0 91 -29 31 -32 39 -77 17 -100 -11 -11 -9 -11 9 -2 31 16 53 62 53 108 0 101 -112 165 -197 113z"/>
 <path d="M1334 729 c-8 -14 18 -31 30 -19 9 9 0 30 -14 30 -5 0 -12 -5 -16 -11z"/>
 <path d="M413 713 c9 -2 25 -2 35 0 9 3 1 5 -18 5 -19 0 -27 -2 -17 -5z"/>
 <path d="M1730 696 c0 -8 51 -13 56 -5 3 5 -9 9 -25 9 -17 0 -31 -2 -31 -4z"/>
 <path d="M675 438 l-40 -43 43 40 c39 36 47 45 39 45 -2 0 -21 -19 -42 -42z"/>
 <path d="M1836 399 c-8 -42 0 -50 9 -9 4 17 5 34 2 36 -2 3 -7 -10 -11 -27z"/>
 <path d="M1809 305 c-9 -25 -13 -42 -8 -40 9 6 33 75 27 80 -2 2 -11 -16 -19 -40z"/>
 </g>
<g id="layer109" fill="#fcfc50" stroke="none">
 <path d="M1010 1851 l55 -6 -76 -7 c-42 -3 -117 -20 -168 -37 -51 -17 -97 -28 -103 -25 -7 5 -8 2 -3 -6 6 -10 4 -12 -9 -7 -9 4 -15 3 -12 -2 7 -11 -43 -33 -56 -25 -7 5 -8 2 -3 -6 6 -10 4 -12 -9 -7 -10 4 -15 3 -11 -3 3 -5 -3 -14 -14 -19 -26 -14 -34 -14 -25 2 4 7 3 9 -2 4 -5 -5 -9 -14 -9 -19 0 -6 -6 -13 -14 -16 -9 -3 -11 0 -6 9 5 8 4 11 -1 6 -5 -5 -9 -14 -9 -19 0 -6 -6 -13 -14 -16 -9 -3 -11 0 -6 9 5 8 4 11 -1 6 -5 -5 -9 -14 -9 -19 0 -6 -6 -13 -14 -16 -9 -3 -11 0 -6 9 5 8 4 11 -1 6 -5 -5 -9 -14 -9 -19 0 -6 -6 -13 -14 -16 -9 -3 -11 0 -5 9 7 12 5 12 -9 0 -9 -7 -15 -17 -12 -21 7 -11 -54 -62 -65 -55 -5 3 -12 0 -16 -6 -4 -8 -3 -9 4 -5 19 12 14 -2 -19 -47 -17 -23 -35 -41 -41 -39 -5 1 -7 -2 -3 -7 3 -6 -4 -38 -16 -73 -11 -35 -23 -72 -26 -83 -7 -29 -5 -174 3 -186 3 -5 0 -17 -8 -26 -7 -9 -8 -14 -2 -10 13 7 24 -13 24 -42 0 -17 51 -175 79 -245 l12 -29 23 22 c15 15 28 43 35 81 16 82 46 165 72 202 12 17 46 42 77 56 49 22 64 24 136 19 95 -6 164 -30 215 -74 41 -35 92 -123 112 -193 15 -55 35 -80 64 -80 28 0 49 25 65 75 21 68 71 154 111 190 49 44 131 69 234 69 70 1 86 -3 133 -28 36 -20 61 -43 77 -70 23 -41 65 -190 65 -231 0 -19 37 -65 52 -65 3 0 9 24 13 53 4 28 8 59 10 67 41 210 43 374 5 472 -39 104 -159 248 -286 344 -172 129 -330 185 -564 199 l-55 3 55 -7z m17 -302 c20 -8 43 -7 83 1 77 16 127 2 174 -51 20 -22 34 -45 30 -51 -4 -6 -19 3 -38 25 -39 44 -64 57 -115 57 -63 0 -91 -15 -91 -48 0 -25 9 -34 57 -63 33 -19 64 -46 71 -62 38 -80 -76 -157 -188 -127 -54 14 -100 59 -100 96 0 31 56 89 107 111 27 11 33 19 33 43 0 35 -23 50 -79 50 -52 0 -81 -12 -125 -51 -20 -17 -39 -29 -42 -26 -11 10 16 45 51 67 63 39 121 49 172 29z"/>
 <path d="M1108 1853 c12 -2 32 -2 45 0 12 2 2 4 -23 4 -25 0 -35 -2 -22 -4z"/>
 <path d="M1410 1776 c0 -3 14 -12 30 -21 17 -9 30 -13 30 -11 0 3 -13 12 -30 21 -16 9 -30 13 -30 11z"/>
 <path d="M1485 1733 c6 -5 44 -35 87 -66 134 -101 264 -253 306 -359 13 -34 17 -76 16 -198 0 -96 3 -138 7 -110 13 79 9 214 -6 275 -29 109 -128 238 -281 369 -58 49 -166 124 -129 89z"/>
 <path d="M594 1072 c-71 -34 -117 -110 -129 -218 -9 -79 8 -114 67 -143 37 -18 63 -21 189 -22 198 -1 246 20 256 115 13 109 -51 225 -143 259 -76 29 -189 32 -240 9z m196 -100 c40 -30 70 -81 70 -121 0 -105 -119 -183 -209 -136 -71 36 -106 121 -78 187 15 36 66 82 102 91 33 9 88 -1 115 -21z"/>
 <path d="M644 961 c-48 -29 -64 -59 -64 -116 l0 -50 20 33 c36 59 109 66 162 15 30 -29 38 -79 16 -102 -11 -11 -9 -11 9 -2 32 16 53 62 53 116 0 37 -6 52 -33 81 -28 31 -41 37 -83 41 -37 3 -57 -1 -80 -16z"/>
 <path d="M645 750 c-3 -6 1 -13 10 -16 19 -8 30 0 20 15 -8 14 -22 14 -30 1z"/>
 <path d="M1455 1073 c-82 -11 -133 -33 -170 -74 -44 -49 -61 -88 -70 -155 -10 -72 12 -119 67 -144 54 -24 99 -27 50 -3 -45 22 -74 67 -79 122 -7 83 59 151 147 151 154 0 205 -197 70 -270 -14 -8 -43 -17 -65 -21 -24 -5 12 -7 90 -5 137 2 169 11 210 56 16 18 20 34 18 86 -1 35 -7 81 -13 102 -14 54 -65 121 -103 137 -38 15 -110 24 -152 18z"/>
 <path d="M1333 940 c-53 -32 -68 -66 -64 -145 l2 -30 14 32 c15 34 36 50 75 53 48 4 62 0 91 -29 31 -32 39 -77 17 -100 -11 -11 -9 -11 9 -2 31 16 53 62 53 108 0 101 -112 165 -197 113z"/>
 <path d="M1869 850 c-8 -48 -12 -87 -8 -84 8 4 33 163 27 169 -2 2 -11 -36 -19 -85z"/>
 <path d="M1845 728 c-4 -13 -6 -39 -5 -59 1 -34 0 -36 -32 -35 -18 0 -100 -4 -183 -8 -170 -9 -290 5 -399 49 -79 32 -204 37 -254 11 -81 -42 -306 -58 -492 -36 -119 15 -120 16 -120 56 0 19 -4 34 -10 34 -9 0 -14 -14 -11 -32 0 -4 -6 -26 -15 -49 -24 -71 -28 -174 -9 -259 10 -41 18 -83 18 -92 2 -23 12 -19 97 36 99 66 169 132 191 181 14 30 19 34 19 18 0 -30 -97 -133 -179 -191 -36 -25 -70 -49 -76 -54 -13 -11 93 25 133 46 38 20 54 20 28 1 -37 -28 -5 -15 40 16 24 16 42 34 40 38 -5 8 85 102 94 99 3 -1 14 3 25 10 11 6 15 12 10 12 -6 0 -16 -5 -23 -12 -9 -9 -12 -8 -12 4 0 9 -6 19 -12 21 -8 3 -7 6 4 6 27 1 70 -18 63 -29 -3 -5 1 -10 10 -10 10 0 13 5 9 11 -5 8 0 10 17 6 13 -3 54 -11 91 -17 38 -7 66 -15 64 -19 -2 -3 20 -4 50 -3 34 3 54 0 54 -7 0 -6 -8 -8 -17 -5 -15 5 -15 4 -3 -4 8 -6 18 -8 24 -5 5 4 7 -1 3 -10 -3 -9 -1 -19 6 -23 7 -4 9 -4 5 1 -4 4 0 14 10 21 10 8 12 13 5 14 -15 0 -18 20 -4 20 15 0 22 -32 10 -46 -9 -11 -7 -14 9 -14 24 0 48 25 32 35 -5 3 -10 -1 -10 -9 0 -9 -4 -16 -10 -16 -8 0 -5 20 7 42 2 4 13 -2 25 -14 16 -16 18 -22 7 -29 -11 -7 -10 -9 4 -9 10 0 17 8 17 20 0 11 -5 20 -11 20 -5 0 -8 4 -5 8 3 5 26 9 53 11 26 1 81 9 122 16 41 8 77 13 79 10 3 -3 0 -5 -7 -5 -8 0 -10 -8 -5 -22 l7 -23 -24 20 c-17 14 -15 10 5 -13 16 -17 32 -30 34 -27 3 2 22 -9 44 -26 21 -17 36 -34 34 -37 -3 -3 -16 3 -28 14 -12 10 -18 14 -14 7 3 -7 21 -22 39 -35 26 -18 29 -19 17 -3 -17 21 -15 20 60 -19 49 -26 137 -56 165 -56 5 0 -21 18 -59 40 -115 67 -182 130 -200 188 -6 18 -4 22 13 22 11 0 23 5 26 10 5 8 11 8 20 0 10 -8 16 -7 24 7 9 16 12 16 22 3 8 -11 12 -12 16 -2 2 6 9 12 15 12 6 0 3 -9 -7 -20 -14 -15 -20 -17 -26 -8 -6 9 -10 8 -15 -5 -6 -16 -8 -17 -24 -2 -16 14 -18 14 -23 1 -4 -10 -13 -13 -23 -9 -28 11 23 -71 65 -105 46 -37 149 -102 160 -102 5 0 17 -7 26 -16 9 -10 20 -13 25 -8 21 23 50 165 51 250 0 49 3 81 7 72 4 -10 7 18 8 62 0 44 0 80 -2 80 -1 0 -5 -10 -9 -22z m-1287 -144 c7 4 12 2 12 -4 0 -20 -45 -6 -48 15 -4 20 -3 20 11 1 7 -10 19 -16 25 -12z m53 -31 c13 -15 11 -16 -11 -10 -14 4 -32 7 -40 8 -10 0 -8 3 5 9 29 12 31 12 46 -7z m-11 -173 c-14 -10 -27 -17 -29 -14 -6 5 31 33 44 33 6 1 -1 -8 -15 -19z"/>
 <path d="M1334 729 c-8 -14 18 -31 30 -19 9 9 0 30 -14 30 -5 0 -12 -5 -16 -11z"/>
 <path d="M413 713 c9 -2 25 -2 35 0 9 3 1 5 -18 5 -19 0 -27 -2 -17 -5z"/>
 <path d="M1730 696 c0 -8 51 -13 56 -5 3 5 -9 9 -25 9 -17 0 -31 -2 -31 -4z"/>
 <path d="M675 438 l-40 -43 43 40 c39 36 47 45 39 45 -2 0 -21 -19 -42 -42z"/>
 <path d="M1253 463 c9 -2 25 -2 35 0 9 3 1 5 -18 5 -19 0 -27 -2 -17 -5z"/>
 <path d="M1836 399 c-8 -42 0 -50 9 -9 4 17 5 34 2 36 -2 3 -7 -10 -11 -27z"/>
 <path d="M1809 305 c-9 -25 -13 -42 -8 -40 9 6 33 75 27 80 -2 2 -11 -16 -19 -40z"/>
 </g>
<g id="layer110" fill="#ceb3cb" stroke="none">
 <path d="M1010 1851 l55 -6 -76 -7 c-42 -3 -117 -20 -168 -37 -51 -17 -97 -28 -103 -25 -7 5 -8 2 -3 -6 6 -10 4 -12 -9 -7 -9 4 -15 3 -12 -2 7 -11 -43 -33 -56 -25 -7 5 -8 2 -3 -6 6 -10 4 -12 -9 -7 -10 4 -15 3 -11 -3 3 -5 -3 -14 -14 -19 -26 -14 -34 -14 -25 2 4 7 3 9 -2 4 -5 -5 -9 -14 -9 -19 0 -6 -6 -13 -14 -16 -9 -3 -11 0 -6 9 5 8 4 11 -1 6 -5 -5 -9 -14 -9 -19 0 -6 -6 -13 -14 -16 -9 -3 -11 0 -6 9 5 8 4 11 -1 6 -5 -5 -9 -14 -9 -19 0 -6 -6 -13 -14 -16 -9 -3 -11 0 -6 9 5 8 4 11 -1 6 -5 -5 -9 -14 -9 -19 0 -6 -6 -13 -14 -16 -9 -3 -11 0 -5 9 6 12 5 12 -8 1 -24 -20 -13 -38 47 -71 107 -60 225 -202 315 -378 23 -46 48 -83 54 -83 7 0 30 -15 52 -34 44 -37 95 -124 115 -196 7 -25 19 -53 27 -62 19 -23 55 -23 73 -2 17 20 54 115 80 204 57 196 180 337 422 486 l86 53 36 -42 c51 -60 103 -139 123 -189 13 -34 17 -76 16 -198 0 -96 3 -138 7 -110 13 79 9 214 -6 275 -20 75 -68 153 -147 240 -71 78 -189 181 -239 209 -43 24 -32 13 61 -56 41 -31 91 -74 110 -94 30 -33 28 -32 -15 7 -200 180 -385 257 -655 274 l-55 3 55 -7z m17 -302 c20 -8 43 -7 83 1 77 16 127 2 174 -51 20 -22 34 -45 30 -51 -4 -6 -19 3 -38 25 -39 44 -64 57 -115 57 -63 0 -91 -15 -91 -48 0 -25 9 -34 57 -63 33 -19 64 -46 71 -62 38 -80 -76 -157 -188 -127 -54 14 -100 59 -100 96 0 31 56 89 107 111 27 11 33 19 33 43 0 35 -23 50 -79 50 -52 0 -81 -12 -125 -51 -20 -17 -39 -29 -42 -26 -11 10 16 45 51 67 63 39 121 49 172 29z"/>
 <path d="M1108 1853 c12 -2 32 -2 45 0 12 2 2 4 -23 4 -25 0 -35 -2 -22 -4z"/>
 <path d="M1410 1776 c0 -3 14 -12 30 -21 17 -9 30 -13 30 -11 0 3 -13 12 -30 21 -16 9 -30 13 -30 11z"/>
 <path d="M875 1035 c36 -111 75 -250 75 -266 0 -26 16 -24 24 4 20 74 -7 174 -65 237 -23 26 -38 37 -34 25z"/>
 <path d="M644 961 c-48 -29 -64 -59 -64 -116 l0 -50 20 33 c36 59 109 66 162 15 30 -29 38 -79 16 -102 -11 -11 -9 -11 9 -2 32 16 53 62 53 116 0 37 -6 52 -33 81 -28 31 -41 37 -83 41 -37 3 -57 -1 -80 -16z"/>
 <path d="M1333 940 c-53 -32 -68 -66 -64 -145 l2 -30 14 32 c15 34 36 50 75 53 48 4 62 0 91 -29 31 -32 39 -77 17 -100 -11 -11 -9 -11 9 -2 31 16 53 62 53 108 0 101 -112 165 -197 113z"/>
 <path d="M1869 850 c-8 -48 -12 -87 -8 -84 8 4 33 163 27 169 -2 2 -11 -36 -19 -85z"/>
 <path d="M645 750 c-3 -6 1 -13 10 -16 19 -8 30 0 20 15 -8 14 -22 14 -30 1z"/>
 <path d="M1845 728 c-4 -13 -6 -40 -5 -60 1 -21 -2 -38 -7 -39 -54 -5 -186 -60 -207 -87 -14 -18 -21 -21 -27 -11 -6 10 -9 9 -15 -4 -6 -16 -8 -17 -24 -2 -16 14 -18 14 -23 1 -4 -10 -13 -13 -23 -9 -28 11 23 -71 65 -105 46 -37 149 -102 160 -102 5 0 17 -7 26 -16 9 -10 20 -13 25 -8 21 23 50 165 51 250 0 49 3 81 7 72 4 -10 7 18 8 62 0 44 0 80 -2 80 -1 0 -5 -10 -9 -22z"/>
 <path d="M339 728 c-1 -7 -1 -16 0 -20 0 -4 -6 -26 -15 -49 -24 -71 -28 -174 -9 -259 10 -41 18 -83 18 -92 2 -23 12 -19 97 36 87 58 166 129 186 168 16 31 18 41 5 34 -13 -9 -71 5 -65 15 3 5 -2 9 -11 9 -8 0 -20 11 -25 25 -5 14 -15 25 -22 25 -7 0 -24 9 -38 20 -14 11 -35 20 -47 20 -41 0 -53 11 -53 46 0 31 -18 50 -21 22z"/>
 <path d="M1334 729 c-8 -14 18 -31 30 -19 9 9 0 30 -14 30 -5 0 -12 -5 -16 -11z"/>
 <path d="M413 713 c9 -2 25 -2 35 0 9 3 1 5 -18 5 -19 0 -27 -2 -17 -5z"/>
 <path d="M999 696 l-31 -11 -1 -105 -2 -105 53 3 c32 3 52 0 52 -7 0 -6 -8 -8 -17 -5 -15 5 -15 4 -3 -4 8 -6 18 -8 24 -5 5 4 7 -1 3 -10 -3 -9 -1 -19 6 -23 7 -4 9 -4 5 1 -4 4 0 14 10 21 10 8 12 13 5 14 -15 0 -18 20 -4 20 15 0 22 -32 10 -46 -9 -11 -7 -14 9 -14 24 0 48 25 32 35 -5 3 -10 -1 -10 -9 0 -9 -5 -16 -11 -16 -5 0 -8 3 -6 8 2 4 7 15 10 25 6 16 8 16 28 -4 17 -17 19 -23 8 -30 -11 -7 -10 -9 4 -9 10 0 17 8 17 20 0 11 -5 20 -11 20 -5 0 -7 5 -4 10 4 6 11 8 16 4 7 -4 9 33 7 105 -3 127 5 117 -105 124 -34 2 -76 -2 -94 -7z"/>
 <path d="M1730 696 c0 -8 51 -13 56 -5 3 5 -9 9 -25 9 -17 0 -31 -2 -31 -4z"/>
 <path d="M1380 487 c0 -2 15 -16 33 -33 l32 -29 -29 33 c-28 30 -36 37 -36 29z"/>
 <path d="M675 438 l-40 -43 43 40 c39 36 47 45 39 45 -2 0 -21 -19 -42 -42z"/>
 <path d="M1253 463 c9 -2 25 -2 35 0 9 3 1 5 -18 5 -19 0 -27 -2 -17 -5z"/>
 <path d="M1836 399 c-8 -42 0 -50 9 -9 4 17 5 34 2 36 -2 3 -7 -10 -11 -27z"/>
 <path d="M600 381 c-13 -11 -27 -18 -30 -17 -3 2 -13 -5 -22 -16 -10 -10 -15 -18 -12 -18 8 0 94 60 94 65 0 8 -3 6 -30 -14z"/>
 <path d="M1474 392 c8 -13 66 -56 66 -49 0 3 -17 17 -37 33 -20 15 -33 23 -29 16z"/>
 <path d="M1809 305 c-9 -25 -13 -42 -8 -40 9 6 33 75 27 80 -2 2 -11 -16 -19 -40z"/>
 </g>
<g id="layer111" fill="#fef6fa" stroke="none">
 <path d="M1013 1853 c9 -2 25 -2 35 0 9 3 1 5 -18 5 -19 0 -27 -2 -17 -5z"/>
 <path d="M925 1826 c-89 -18 -161 -43 -255 -91 -75 -38 -214 -127 -224 -144 -3 -5 18 -23 48 -40 107 -60 233 -211 316 -378 29 -58 43 -75 78 -93 54 -29 115 -119 143 -212 14 -44 28 -72 41 -79 31 -17 64 3 78 48 7 21 23 63 35 93 13 30 31 80 40 110 21 69 80 169 140 237 53 61 175 155 277 214 l72 42 -45 39 c-138 122 -289 211 -414 244 -84 22 -245 27 -330 10z m140 -276 c11 -1 45 2 76 6 65 7 124 -16 158 -65 44 -62 18 -69 -36 -10 -43 46 -96 59 -154 40 -29 -9 -34 -15 -33 -41 1 -26 8 -34 42 -52 52 -25 92 -71 92 -105 0 -34 -48 -79 -100 -93 -62 -17 -124 -5 -165 32 -49 43 -48 84 3 130 20 18 51 39 67 46 25 10 30 18 29 43 0 17 -7 35 -15 40 -40 25 -165 -8 -192 -52 -7 -11 -17 -19 -24 -19 -23 0 -13 28 20 56 52 44 85 55 152 49 33 -3 69 -5 80 -5z"/>
 <path d="M1810 1430 c12 -16 24 -30 26 -30 3 0 -4 14 -16 30 -12 17 -24 30 -26 30 -3 0 4 -13 16 -30z"/>
 <path d="M1903 1065 c0 -22 2 -30 4 -17 2 12 2 30 0 40 -3 9 -5 -1 -4 -23z"/>
 <path d="M907 932 c18 -59 36 -124 40 -145 9 -59 27 -28 26 45 -1 70 -12 105 -49 160 -48 69 -53 51 -17 -60z"/>
 <path d="M653 965 c-41 -17 -73 -69 -73 -116 l0 -37 34 34 c39 39 77 44 127 18 39 -20 64 -75 49 -107 -8 -16 -3 -13 19 11 73 77 8 213 -101 212 -13 -1 -38 -7 -55 -15z"/>
 <path d="M1343 941 c-50 -23 -73 -63 -72 -123 0 -32 2 -38 8 -23 28 66 117 82 171 30 26 -25 31 -36 28 -68 l-4 -37 24 23 c56 56 33 164 -42 198 -51 23 -61 23 -113 0z"/>
 <path d="M645 750 c-3 -6 1 -13 10 -16 19 -8 30 0 20 15 -8 14 -22 14 -30 1z"/>
 <path d="M1335 720 c3 -5 13 -10 21 -10 8 0 14 5 14 10 0 6 -9 10 -21 10 -11 0 -17 -4 -14 -10z"/>
 <path d="M413 713 c9 -2 25 -2 35 0 9 3 1 5 -18 5 -19 0 -27 -2 -17 -5z"/>
 <path d="M332 669 c-23 -57 -27 -214 -8 -289 9 -36 20 -68 24 -72 11 -11 119 61 182 121 30 29 49 49 41 45 -9 -5 -12 -3 -7 5 4 6 11 9 16 6 5 -3 16 5 24 17 20 28 20 39 1 32 -8 -4 -15 -1 -15 6 0 6 -4 8 -10 5 -14 -9 -60 25 -60 44 0 22 -70 60 -124 67 -35 5 -46 11 -48 27 -2 15 -6 12 -16 -14z"/>
 <path d="M985 689 c-18 -9 -20 -18 -17 -104 l3 -94 47 -7 c26 -3 53 -13 60 -22 11 -14 12 -14 12 1 0 22 9 22 26 0 13 -17 13 -17 14 0 0 9 4 17 10 17 5 0 14 -8 19 -17 10 -17 10 -17 11 0 0 9 7 17 16 17 13 0 15 15 12 104 -3 95 -5 105 -23 110 -33 9 -169 5 -190 -5z"/>
 <path d="M1735 599 c-38 -16 -75 -29 -81 -29 -6 0 -16 -12 -23 -26 -7 -15 -17 -24 -25 -21 -7 3 -18 1 -24 -5 -8 -8 -16 -8 -27 2 -10 8 -15 9 -15 1 0 -6 -7 -11 -15 -11 -14 0 -14 -3 -1 -29 20 -37 108 -107 196 -154 l69 -38 21 73 c12 39 24 112 27 160 5 77 4 88 -10 82 -9 -3 -17 1 -19 9 -2 12 -16 9 -73 -14z"/>
 <path d="M675 438 l-40 -43 43 40 c39 36 47 45 39 45 -2 0 -21 -19 -42 -42z"/>
 </g>

</svg>